# xmcd
#
# Track frame offsets:
#	150
#	12718
#	22317
#	35903
#	51808
#	66832
#	76238
#	94406
#	123394
#	140609
#	155630
#	172921
#
# Disc length: 2451 seconds
#
# Revision: 1
# Processed by: cddbd v1.5.2PL0 Copyright (c) Steve Scherf et al.
# Submitted via: audiograbber 1.83.01
#
DISCID=ac09910c
DTITLE=Peter Reimer - Colours
DYEAR=1999
DGENRE=Blues
TTITLE0=Country Fair
TTITLE1=Make Me A Pallet On Your Floor
TTITLE2=Maxixe
TTITLE3=Hairs Across The Fret
TTITLE4=Maple Leaf Rag
TTITLE5=Canarios
TTITLE6=Par Avion
TTITLE7=Eat What You Will
TTITLE8=Freeze Frame
TTITLE9=Free Again
TTITLE10=If You Would
TTITLE11=Let Me Play It Before I Say Aloha
EXTD=
EXTT0=
EXTT1=
EXTT2=
EXTT3=
EXTT4=
EXTT5=
EXTT6=
EXTT7=
EXTT8=
EXTT9=
EXTT10=
EXTT11=
PLAYORDER=
